<?xml version="1.0" standalone="no"?><svg xmlns="http://www.w3.org/2000/svg" viewBox="0 0 1440 320"><path fill="#1d3c45" fill-opacity="1" d="M0,288L40,282.7C80,277,160,267,240,266.7C320,267,400,277,480,245.3C560,213,640,139,720,133.3C800,128,880,192,960,192C1040,192,1120,128,1200,106.7C1280,85,1360,107,1400,117.3L1440,128L1440,320L1400,320C1360,320,1280,320,1200,320C1120,320,1040,320,960,320C880,320,800,320,720,320C640,320,560,320,480,320C400,320,320,320,240,320C160,320,80,320,40,320L0,320Z"></path></svg>