<?xml version="1.0" standalone="no"?><svg xmlns="http://www.w3.org/2000/svg" viewBox="0 0 1440 320"><path fill="#1d3c45" fill-opacity="1" d="M0,192L18.5,192C36.9,192,74,192,111,165.3C147.7,139,185,85,222,69.3C258.5,53,295,75,332,90.7C369.2,107,406,117,443,122.7C480,128,517,128,554,128C590.8,128,628,128,665,112C701.5,96,738,64,775,48C812.3,32,849,32,886,32C923.1,32,960,32,997,58.7C1033.8,85,1071,139,1108,154.7C1144.6,171,1182,149,1218,138.7C1255.4,128,1292,128,1329,154.7C1366.2,181,1403,235,1422,261.3L1440,288L1440,0L1421.5,0C1403.1,0,1366,0,1329,0C1292.3,0,1255,0,1218,0C1181.5,0,1145,0,1108,0C1070.8,0,1034,0,997,0C960,0,923,0,886,0C849.2,0,812,0,775,0C738.5,0,702,0,665,0C627.7,0,591,0,554,0C516.9,0,480,0,443,0C406.2,0,369,0,332,0C295.4,0,258,0,222,0C184.6,0,148,0,111,0C73.8,0,37,0,18,0L0,0Z"></path></svg>